<svg xmlns="http://www.w3.org/2000/svg" viewBox="0 0 24 24" width="24" height="24">
  <!-- continents (subtle fill to avoid heaviness) -->
  <g fill="currentColor" fill-opacity="0.18">
    <!-- Americas -->
    <path d="M6 6c-.8 1-.9 2.1 0 3 1 1 1.2 2 .3 2.9-.7.8-.6 2 .2 2.9.8.9 2 .9 2.6.2.6-.7-.1-1.6-.1-2.4 0-.9 1-1.5 1.1-2.6.1-.9-.6-1.7-1.4-2.4-.9-.7-1.5-1.4-2.7-1.6Z"/>
    <!-- Eurasia/Africa -->
    <path d="M14 6c1 0 2 .7 3 1.7 1 1 1.5 2.2 1.1 3.1-.4.9-1.9 1-2.1 2-.2 1 .9 1.7.6 2.6-.3 1-1.9 2.1-3.3 1.7-1.1-.3-.8-1.3-.5-2.1.3-.9.7-1.8.3-2.6-.4-.9-1.2-1.7-.2-2.7.5-.5 1-.8 1.1-1.7Z"/>
  </g>
  <!-- globe lines -->
  <g fill="none" stroke="currentColor" stroke-width="1.5" stroke-linecap="round" stroke-linejoin="round">
    <circle cx="12" cy="12" r="10"/>
    <path d="M12 2v20"/>
    <path d="M2 12h20"/>
    <path d="M8 2c-2 6-2 14 0 20"/>
    <path d="M16 2c2 6 2 14 0 20"/>
    <path d="M3 8c6-2 12-2 18 0"/>
    <path d="M3 16c6 2 12 2 18 0"/>
  </g>
</svg>
